PathFileType	4	(X/Y/Z)	C:\Users\chris\Documents\GitHub\baseballds\vids\pitch0_Sports2D\pitch0_Sports2D_m_person00.trc
DataRate	CameraRate	NumFrames	NumMarkers	Units	OrigDataRate	OrigDataStartFrame	OrigNumFrames
30	30	8	22	m	30	96	110
Frame#	Time	Hip			RHip			RKnee			RAnkle			RBigToe			RSmallToe			RHeel			LHip			LKnee			LAnkle			LBigToe			LSmallToe			LHeel			Neck			Head			Nose			RShoulder			RElbow			RWrist			LShoulder			LElbow			LWrist		
		X1	Y1	Z1	X2	Y2	Z2	X3	Y3	Z3	X4	Y4	Z4	X5	Y5	Z5	X6	Y6	Z6	X7	Y7	Z7	X8	Y8	Z8	X9	Y9	Z9	X10	Y10	Z10	X11	Y11	Z11	X12	Y12	Z12	X13	Y13	Z13	X14	Y14	Z14	X15	Y15	Z15	X16	Y16	Z16	X17	Y17	Z17	X18	Y18	Z18	X19	Y19	Z19	X20	Y20	Z20	X21	Y21	Z21	X22	Y22	Z22
96	3.2	2.538807005012645	0.9217636448689374	0.0	2.6404706741547503	0.9399031113380979	0.0	2.946349030730058	0.6499278760471421	0.0	3.0376762751639554	0.6253787965668375	0.0	3.233991274115369	0.5264501449139424	0.0	3.2270795063778417	0.5354002130550072	0.0	3.0426376146743963	0.6357592290105333	0.0	2.463024391526375	0.8848188650568356	0.0	2.6390982869742055	0.4376312110705619	0.0	2.787205033802236	0.03958268049147242	0.0	2.9487094538260274	0.006387758786715734	0.0	2.927017204018795	-0.0007349552726056787	0.0	2.7903433143527288	-0.02280479560251249	0.0	2.6678416165385657	1.3595065736097407	0.0	2.7933384910079093	1.5808725615378423	0.0	2.810672084211832	1.418441137420806	0.0	2.7963810169645265	1.285054312131299	0.0	2.8588958217783778	0.9851700360621353	0.0	2.9761127516815917	0.825005804382743	0.0	2.477097769627106	1.3314622664708042	0.0	2.272217521764995	1.1564853637152561	0.0	2.2834484439509697	1.192325692360464	0.0
97	3.2333333333333334	2.5513862541068644	0.9206936235084519	0.0	2.6573743199313857	0.9437161438378358	0.0	2.9580243197935663	0.6827479055964478	0.0	3.116523396032363	0.5885203437782582	0.0	3.34075446911852	0.45082781101595365	0.0	3.3338317530685773	0.47086414554736006	0.0	3.1290117571892275	0.5671505740081896	0.0	2.4757000407372383	0.8835736072901749	0.0	2.649289310876758	0.43375527135554304	0.0	2.792967445404226	0.039858108626599366	0.0	2.948375699590893	0.008898282456586137	0.0	2.9255146765003732	0.0036877087847898534	0.0	2.793396093570143	-0.02538044960444823	0.0	2.6564216527715727	1.354384407552728	0.0	2.777420752421404	1.5801264701816329	0.0	2.7968423102722375	1.416126328338334	0.0	2.7838318515368234	1.2933515085248286	0.0	2.886946623026897	1.0176507437038764	0.0	3.07544006988977	0.8939023874064781	0.0	2.4696656614794956	1.3182238145886522	0.0	2.2853291394169095	1.1158765609389136	0.0	2.3528146954642217	1.1487822594843535	0.0
98	3.2666666666666666	2.574966363881899	0.9170770200038172	0.0	2.6803386350145897	0.9425298919154654	0.0	2.939061432792023	0.6999380340231837	0.0	3.1300386281564365	0.5282775945843927	0.0	3.3238694886628557	0.3882350155841584	0.0	3.330043906210016	0.4050335387012618	0.0	3.1459182851482783	0.4884955225989818	0.0	2.493565855888107	0.8813568895858382	0.0	2.659406235617912	0.43214900187946725	0.0	2.7953852870049802	0.0423126267516945	0.0	2.9418769400084206	0.013135229165487827	0.0	2.9157074892825534	0.007866285746521767	0.0	2.7962323151424484	-0.024121776054755083	0.0	2.645094121814951	1.3513882701402247	0.0	2.7613526611777437	1.5831417854811167	0.0	2.7870991357262644	1.416958189549306	0.0	2.775955110352918	1.3014901198803177	0.0	2.9043418322591252	1.0471035132737205	0.0	3.1239789970500107	0.9537880373454533	0.0	2.4583393473377853	1.3067153932652917	0.0	2.302893214781044	1.0736544426328687	0.0	2.400802859074183	1.0969080231692718	0.0
99	3.3	2.6007501078841146	0.9113559656671938	0.0	2.703648763889944	0.9366352276657538	0.0	2.8956180127318354	0.7035811545114659	0.0	3.0849417311774245	0.46084220932809383	0.0	3.2166302545283525	0.3573630173051613	0.0	3.2382756811036426	0.365912076304285	0.0	3.1011108000428935	0.41407740124589537	0.0	2.5111821515975947	0.8770022505403304	0.0	2.6686165411443006	0.4339689713025644	0.0	2.7967251545308174	0.04772407438862872	0.0	2.936421826513266	0.01782282572272839	0.0	2.9048419261188716	0.01021017415863522	0.0	2.8015661225572965	-0.019062441094115676	0.0	2.6371927548431358	1.3563908902983148	0.0	2.744298255625735	1.5900872185759647	0.0	2.778024185386473	1.42493203016449	0.0	2.77308323037195	1.3093302688468886	0.0	2.91495685631316	1.0690260805733156	0.0	3.1346394163152476	0.9932299152632074	0.0	2.4467391228603144	1.3012906857461677	0.0	2.3245337489312208	1.041964609889877	0.0	2.4007806971382735	1.043394126315104	0.0
100	3.3333333333333335	2.619135019750429	0.9058707489626648	0.0	2.7203191860103377	0.9272257893461265	0.0	2.8422100130439443	0.6890204161491786	0.0	2.9972428444635257	0.40699789007821885	0.0	3.061590639815539	0.34781870780898644	0.0	3.0985606395056426	0.3527429186515695	0.0	3.0112660009870305	0.3579485050013537	0.0	2.5244488222150263	0.8735138377411436	0.0	2.676175563297633	0.4398393863611666	0.0	2.7994014559990403	0.05880541860654938	0.0	2.9327257337813957	0.01900867611814583	0.0	2.8966742510104817	0.008052043549971234	0.0	2.8118229080564405	-0.009888961288347018	0.0	2.6343619144835637	1.367394284948876	0.0	2.7308966485107984	1.5977313501052035	0.0	2.7695974818895386	1.4368164006439466	0.0	2.774045605389639	1.3147077676658883	0.0	2.9205631437364716	1.0823395836927694	0.0	3.1238882751772623	1.0186120610739835	0.0	2.441223265955266	1.303306857165724	0.0	2.3465963850280147	1.0338104492039741	0.0	2.373002823439488	0.993318814242043	0.0
101	3.3666666666666667	2.6272057990621454	0.903407434284784	0.0	2.727520646410948	0.9167986754431441	0.0	2.791389867156207	0.6540496092008946	0.0	2.8932120435014292	0.37140446689030754	0.0	2.9058591645745597	0.3308271892883386	0.0	2.952674479053775	0.3402276252033663	0.0	2.902393383917565	0.32126608789462624	0.0	2.532545982571279	0.8739112897695338	0.0	2.6806175786186457	0.450229143793497	0.0	2.8039289224767807	0.0801213740071422	0.0	2.932608291275063	0.011274510322519646	0.0	2.896616716031738	-0.00026550362773738854	0.0	2.826521386981306	0.009998398040193923	0.0	2.6351927374293806	1.376834315066766	0.0	2.7257537463775163	1.6018474699153287	0.0	2.7636355293390586	1.4447166358800418	0.0	2.7769149079941893	1.3149376670487227	0.0	2.9189759572541334	1.0862085960052883	0.0	3.1058740971840786	1.0363492090438822	0.0	2.4426315598917343	1.3083155127992157	0.0	2.3643784484280026	1.0420277014292776	0.0	2.351119986919698	0.951800911197592	0.0
102	3.4	2.6286219402775837	0.902198872738724	0.0	2.726768694094542	0.9057932746775639	0.0	2.745625913060164	0.6062438652438402	0.0	2.7959116288893573	0.34174716320752585	0.0	2.7733518537719153	0.29334595125367496	0.0	2.8204935202727417	0.30983496535743105	0.0	2.7995846130861146	0.2891148940721734	0.0	2.536381505508559	0.876043539668225	0.0	2.678590473838373	0.46069703725526706	0.0	2.8103429194194245	0.11258607099358516	0.0	2.941279143077714	-0.003391645957701308	0.0	2.90991367516828	-0.009738580799595399	0.0	2.8433525153083923	0.047681687770941214	0.0	2.637601911218444	1.3775016570937517	0.0	2.7263726211979566	1.5981639535612893	0.0	2.759546633828949	1.4422935086138933	0.0	2.780613148589941	1.306854077705174	0.0	2.9108514689296987	1.0797643352499577	0.0	3.09237794539405	1.0497383287115174	0.0	2.447457276278534	1.3085646701868925	0.0	2.3747654970269294	1.0449462357291397	0.0	2.3438722449550937	0.9193102014128353	0.0
103	3.433333333333333	2.6279805063946795	0.8944517809029784	0.0	2.721144113449669	0.8898276706902222	0.0	2.7026081049209485	0.5586735560412918	0.0	2.7142104937657803	0.3068668874313716	0.0	2.663291915738208	0.25057938804684793	0.0	2.706295887403561	0.2674305954370316	0.0	2.7167644450080513	0.24821530720559593	0.0	2.5377905441564383	0.8723111464263759	0.0	2.6642701613901387	0.46286741912750573	0.0	2.8168612369264845	0.15293975319179448	0.0	2.9528596602237593	-0.011080870917462219	0.0	2.927839236472136	-0.008034977829148079	0.0	2.8611656329124773	0.10347675664722929	0.0	2.641432495322541	1.3651639280057488	0.0	2.7251909524792266	1.5837660700335323	0.0	2.7557001845465745	1.4280336498556292	0.0	2.7856920729202566	1.2871797712972635	0.0	2.9042338724189682	1.0626585677339042	0.0	3.0876784201450382	1.0626036801100556	0.0	2.453780461519739	1.2974281390687168	0.0	2.3784213576933957	1.0338444580479642	0.0	2.3357567561495274	0.891270683351244	0.0
